PathFileType	4	(X/Y/Z)	c:/Users/goper/Files/vsCode/490R/osim_files/C06/C06_SSWS_05.trc
DataRate	CameraRate	NumFrames	NumMarkers	Units                	OrigDataRate	OrigDataStartFrame	OrigNumFrames
250.00	250.00	10	36	mm	250.0	1302	2082
                Frame#	Time	LPSIS			LASIS			LTH1			LTH2			LTH3			LTH4			LLFE			LMFE			LSH1			LSH2			LSH3			LSH4			LLMAL			LMMAL			LCAL			LMTP5			LTOE			LMTP1			RPSIS			RASIS			RTH1			RTH2			RTH3			RTH4			RLFE			RMFE			RSH1			RSH2			RSH3			RSH4			RLMAL			RMMAL			RCAL			RMTP1			RTOE			RMTP5		
		X1	Y1	Z1	X2	Y2	Z2	X3	Y3	Z3	X4	Y4	Z4	X5	Y5	Z5	X6	Y6	Z6	X7	Y7	Z7	X8	Y8	Z8	X9	Y9	Z9	X10	Y10	Z10	X11	Y11	Z11	X12	Y12	Z12	X13	Y13	Z13	X14	Y14	Z14	X15	Y15	Z15	X16	Y16	Z16	X17	Y17	Z17	X18	Y18	Z18	X19	Y19	Z19	X20	Y20	Z20	X21	Y21	Z21	X22	Y22	Z22	X23	Y23	Z23	X24	Y24	Z24	X25	Y25	Z25	X26	Y26	Z26	X27	Y27	Z27	X28	Y28	Z28	X29	Y29	Z29	X30	Y30	Z30	X31	Y31	Z31	X32	Y32	Z32	X33	Y33	Z33	X34	Y34	Z34	X35	Y35	Z35	X36	Y36	Z36

1302	5.20400	-1509.21448	1010.69446	193.29750	-1685.28516	985.58636	292.60727	-1603.44800	781.25690	360.49252	-1607.30786	718.95782	353.06897	-1675.54688	781.67224	337.78241	-1669.87769	720.32397	333.93909	-1588.10962	470.74307	290.86072	-1570.79224	459.97739	175.40462	-1507.94287	367.32239	309.13345	-1509.52307	323.23035	303.21503	-1571.37012	364.93478	301.08908	-1563.33936	319.67282	296.51147	-1496.86694	90.72415	241.64964	-1501.73303	113.77134	167.46832	-1426.02856	71.83611	198.98044	-1603.71277	30.84853	262.53198	-1653.49988	48.06229	192.85754	-1624.31763	33.28387	150.83734	-1505.75000	1006.69543	121.98948	-1687.93408	986.34528	57.28573	-1662.61194	781.11499	-31.71885	-1699.07117	729.26508	-28.62112	-1727.96643	818.67853	-16.43455	-1754.44836	761.83154	-16.72295	-1821.11951	498.30429	13.68058	-1851.89807	513.77051	120.91811	-1755.72327	429.21878	3.09092	-1751.59277	381.40894	2.07695	-1816.19556	414.93137	3.69982	-1804.40381	369.79584	3.50900	-1739.61755	127.93949	41.85128	-1767.36646	149.57201	117.13725	-1680.08484	107.37361	98.28525	-1883.20410	53.09384	104.32686	-1897.86914	69.35701	52.05251	-1840.19885	52.56425	-3.63661
1303	5.20800	-1513.74854	1010.11749	192.80322	-1689.60986	985.04669	292.60513	-1606.68091	781.34454	360.28177	-1610.31433	718.71533	352.90768	-1678.83630	781.12384	337.70663	-1672.64734	719.67621	333.93796	-1589.01343	470.68869	290.90576	-1571.88293	460.08606	175.51994	-1508.49048	367.53864	309.13419	-1509.93896	323.47626	303.22986	-1572.21033	364.75867	301.47928	-1563.73047	319.72354	296.78564	-1496.96716	90.80124	241.58501	-1501.91736	113.94499	167.41570	-1426.07922	71.91520	198.94681	-1603.71057	30.81791	262.55725	-1653.55078	47.98112	192.87880	-1624.37427	33.28004	150.85954	-1510.46997	1006.12976	121.44949	-1691.86792	985.77570	57.21590	-1667.97498	780.80286	-32.02080	-1704.50745	729.03729	-28.95371	-1732.87903	818.40869	-16.91034	-1759.79993	761.70782	-16.81680	-1826.82642	498.01447	13.84428	-1857.07556	513.66553	121.13240	-1763.34143	426.94861	2.78775	-1760.73962	379.05869	1.81099	-1824.26355	414.39667	3.67479	-1813.83484	368.96765	3.42006	-1755.77844	125.49152	41.61313	-1783.19019	147.61043	116.84865	-1697.18884	103.31138	98.08431	-1901.43042	54.24214	103.70229	-1915.65027	70.93637	51.53226	-1858.24829	52.75534	-4.21584
1304	5.21200	-1518.23340	1009.52606	192.29103	-1693.32666	984.19128	292.42972	-1610.10303	781.12927	360.25726	-1613.32349	718.48932	352.78680	-1681.94800	780.44379	337.71820	-1675.53442	719.05737	333.90787	-1590.23328	470.59863	291.03168	-1572.83594	460.18930	175.59387	-1509.04626	367.76404	309.17010	-1510.32324	323.69617	303.23370	-1573.02441	364.80191	302.09451	-1564.37000	319.49741	297.07819	-1497.09277	90.90932	241.52493	-1502.14636	114.14131	167.37791	-1426.12683	71.98862	198.92146	-1603.69153	30.80150	262.56726	-1653.58093	47.92937	192.93880	-1624.35925	33.20875	150.84476	-1515.16638	1005.50244	120.99104	-1697.58984	985.34204	57.28579	-1673.35400	780.39270	-32.32361	-1709.84241	728.66510	-29.18461	-1737.99622	818.04657	-16.99157	-1765.07861	761.42755	-16.89476	-1832.58337	497.63898	14.01860	-1862.11853	513.50494	121.48572	-1771.02332	424.66922	2.45253	-1769.82495	376.73755	1.54062	-1832.30798	413.81396	3.66882	-1823.24170	368.11176	3.36939	-1772.51025	123.00980	41.57822	-1798.95374	145.89951	116.60289	-1714.05225	99.44164	98.01781	-1919.80249	55.49644	103.07379	-1933.30383	72.68459	50.95242	-1876.34229	53.11628	-4.69455
1305	5.21600	-1522.77979	1008.96613	191.73322	-1698.14294	983.82751	292.45798	-1613.26343	781.00128	360.21948	-1616.27991	718.20001	352.63684	-1684.95532	779.60522	337.66119	-1678.46460	718.47577	333.84625	-1591.23193	470.56784	291.16772	-1573.98657	460.26883	175.72086	-1509.67566	367.95761	309.17941	-1510.62317	323.57568	303.26108	-1574.01929	364.93372	302.84402	-1564.82397	319.45355	297.27768	-1497.19678	91.00957	241.45354	-1502.35645	114.35545	167.31863	-1426.18420	72.07827	198.87627	-1603.71143	30.78672	262.56717	-1653.63928	47.87763	192.94386	-1624.37036	33.16615	150.82793	-1519.83276	1004.84998	120.44843	-1702.40259	984.83453	57.16339	-1678.67578	779.93201	-32.59108	-1715.18481	728.27271	-29.47231	-1743.59766	817.74536	-16.77550	-1770.38464	761.03577	-16.97708	-1838.21277	497.01831	14.18849	-1867.11707	513.09076	121.72715	-1778.76038	422.42813	2.16278	-1778.90173	374.47971	1.20965	-1839.99402	413.26907	3.33159	-1832.50134	367.30603	3.22646	-1788.77637	120.93956	41.30341	-1814.68542	144.37941	116.34971	-1731.15100	95.90837	97.76550	-1937.59937	57.12405	102.77703	-1950.71057	74.55680	50.54958	-1894.19421	53.61140	-5.08788
1306	5.22000	-1527.28442	1008.22406	191.15645	-1703.05652	983.37823	292.41718	-1616.66614	780.47162	360.39450	-1619.35376	717.89276	352.45212	-1688.42725	779.11853	337.65787	-1681.37781	717.86084	333.84122	-1592.47815	470.50116	291.26718	-1574.98560	460.37469	175.81998	-1510.27759	368.19077	309.21396	-1511.10547	324.01019	303.18246	-1574.35181	363.99924	301.36426	-1565.32312	319.45490	297.46826	-1497.34229	91.10796	241.40387	-1502.57092	114.55094	167.26151	-1426.22485	72.16855	198.84016	-1603.73108	30.77296	262.61343	-1653.71753	47.82941	192.94753	-1622.42249	33.53012	149.79317	-1524.64209	1004.10260	119.89488	-1707.37366	984.25317	57.11575	-1683.81506	779.38690	-32.94140	-1720.45300	727.78833	-29.69905	-1748.74744	817.16241	-16.81633	-1775.61865	760.52008	-17.07744	-1843.83459	496.37527	14.31770	-1871.77271	512.60480	121.63551	-1786.17078	420.45477	1.81062	-1788.16602	372.21112	0.93328	-1847.89783	412.68100	3.20195	-1841.42126	366.50525	2.86846	-1805.06433	118.93052	40.94270	-1830.30396	143.05249	116.06904	-1747.89429	92.67454	97.64469	-1955.32959	58.83484	102.47692	-1968.08862	76.72127	50.16521	-1912.09082	54.29305	-5.37236
1307	5.22400	-1531.83875	1007.47473	190.58566	-1706.48657	982.54907	292.59650	-1619.98242	780.60883	360.22293	-1622.30286	717.70575	352.47421	-1691.73608	778.44043	337.64148	-1684.38855	717.28479	333.82928	-1593.68677	470.45514	291.42166	-1576.05823	460.43692	175.96982	-1510.95093	368.44379	309.34320	-1511.65662	324.04779	303.34445	-1575.12549	364.09225	301.54410	-1565.79114	319.76837	297.57748	-1497.48486	91.24296	241.33429	-1502.78577	114.78162	167.22270	-1426.29907	72.28781	198.79471	-1603.82800	30.78191	262.68192	-1653.77734	47.78314	192.99115	-1622.45691	33.50398	149.83453	-1529.49158	1003.24103	119.36768	-1712.30078	983.65424	57.00910	-1689.10840	778.73639	-33.21819	-1725.78088	727.13721	-29.97517	-1753.89868	816.56702	-16.90465	-1780.80896	759.94879	-17.12438	-1849.40198	495.58588	14.38233	-1876.78357	512.06000	121.82260	-1793.96887	418.25699	1.59049	-1797.25842	370.09970	0.61100	-1855.88782	412.13684	3.19263	-1850.67175	365.83066	2.65610	-1820.90942	116.70055	40.57285	-1845.86572	141.98810	115.80721	-1764.75122	89.73614	97.38676	-1973.20825	60.82222	102.08213	-1984.92407	78.76344	49.95045	-1929.80688	55.16327	-5.55244
1308	5.22800	-1536.34644	1006.71490	189.95016	-1710.81262	981.95020	292.62518	-1623.36816	780.42615	360.17258	-1625.31555	717.57812	352.47760	-1695.12390	777.88702	337.64807	-1687.35779	716.70325	333.82065	-1594.99719	470.42737	291.56097	-1577.22791	460.51425	176.07707	-1511.68420	368.71805	309.40970	-1512.27124	324.36551	303.45551	-1575.77844	364.26413	301.69324	-1566.46460	319.73663	297.86551	-1497.60046	91.37829	241.25801	-1503.01953	114.99355	167.19798	-1426.35889	72.42128	198.71620	-1603.82410	30.71128	262.57568	-1653.78174	47.70677	192.97873	-1622.27527	33.67540	149.64023	-1534.25403	1002.46411	118.82142	-1717.17480	983.01941	56.96325	-1694.28821	778.03033	-33.49195	-1730.96350	726.48877	-30.25970	-1759.06799	815.86121	-17.01107	-1785.94434	759.23224	-17.26736	-1854.94763	494.72113	14.43187	-1881.55200	511.31851	121.92988	-1801.82410	416.10941	1.41801	-1806.35388	368.13461	0.26737	-1863.79382	411.61676	3.17729	-1859.81848	365.17084	2.55842	-1837.26306	115.51927	40.44781	-1861.26758	141.12091	115.52824	-1781.48755	86.93999	97.09051	-1990.41125	63.45605	102.03538	-2002.80981	82.40916	49.54101	-1947.43274	56.25557	-5.69775
1309	5.23200	-1540.97095	1005.85608	189.43013	-1715.11182	981.32654	292.52411	-1626.77356	780.19720	360.06979	-1628.21289	717.38733	352.52866	-1698.47595	777.31256	337.61969	-1690.38562	716.19244	333.81375	-1596.14062	470.38708	291.69791	-1578.44055	460.59564	176.20877	-1512.51135	369.01050	309.48126	-1512.94373	324.70218	303.62103	-1576.50647	364.32446	301.88632	-1567.08923	319.90906	298.10025	-1497.71509	91.52663	241.20592	-1503.27917	115.18065	167.17935	-1426.38123	72.55577	198.64833	-1603.83594	30.71759	262.59317	-1653.87012	47.65492	193.02023	-1622.29517	33.66934	149.64983	-1539.09302	1001.52966	118.17571	-1722.12598	982.36719	56.94476	-1699.39392	777.35107	-33.76818	-1736.08838	725.70026	-30.45550	-1764.14001	815.04907	-17.05229	-1791.03735	758.45038	-17.30238	-1860.43420	493.82504	14.41529	-1886.42273	510.61121	121.98827	-1809.55969	414.01562	1.28710	-1815.41699	366.16507	0.07710	-1871.59473	411.15323	3.20827	-1868.86316	364.68204	2.38270	-1853.32654	114.18264	40.08067	-1876.33350	140.61649	115.28580	-1798.10596	84.45604	96.75497	-2007.54773	66.26363	102.00503	-2019.49902	85.50426	49.42308	-1964.84265	57.69265	-5.69352
1310	5.23600	-1545.58313	1004.94312	188.78979	-1719.47949	980.68604	292.44278	-1630.26794	779.96399	359.93637	-1631.25159	717.23035	352.56378	-1702.00513	776.75702	337.60706	-1693.36816	715.68884	333.88861	-1597.55249	470.34778	291.89099	-1579.53918	460.67374	176.33652	-1513.19751	369.30548	309.44565	-1513.63538	325.04651	303.76447	-1577.42114	364.47263	302.08319	-1567.75635	320.05753	298.24213	-1497.86377	91.68075	241.18311	-1503.54260	115.40482	167.18655	-1426.46155	72.68811	198.60364	-1603.85498	30.71035	262.59641	-1653.88635	47.65456	193.07489	-1622.28137	33.64968	149.64224	-1543.90503	1000.56464	117.61226	-1727.10193	981.68176	56.71960	-1704.95557	776.32843	-33.62016	-1741.16760	724.88910	-30.68556	-1769.25293	814.23633	-17.18764	-1796.16223	757.57300	-17.36976	-1865.83521	492.88174	14.41413	-1891.34497	509.77997	122.08892	-1817.25745	412.07977	1.23221	-1824.42725	364.41443	-0.17505	-1879.23499	410.80472	3.24667	-1877.75049	364.21643	2.33284	-1869.27942	113.17265	39.83883	-1891.26990	140.26523	115.02025	-1814.52271	82.14333	96.33485	-2024.40479	69.40788	102.09908	-2035.93408	88.93032	49.52797	-1982.12598	59.36618	-5.65764
1311	5.24000	-1550.14697	1004.04315	188.13109	-1723.84106	980.02441	292.32022	-1633.81726	779.28082	359.92621	-1634.28687	717.07025	352.57852	-1705.33069	776.16638	337.69012	-1696.36792	715.12549	334.01294	-1598.90991	470.29153	291.98172	-1580.83618	460.71991	176.43419	-1514.16931	369.60312	309.53488	-1514.36768	325.47495	303.87671	-1578.19177	364.61618	302.26270	-1568.58337	320.46182	298.35910	-1497.99475	91.85587	241.12840	-1503.81848	115.64924	167.18996	-1426.51294	72.85142	198.54012	-1603.87158	30.70326	262.58490	-1653.93738	47.59156	193.04373	-1622.33630	33.66830	149.64822	-1548.65845	999.54266	117.03314	-1731.90869	980.91132	56.59040	-1709.89233	775.56000	-33.99291	-1746.13171	724.00800	-30.88927	-1774.33435	813.29510	-17.23094	-1801.10840	756.66003	-17.47410	-1871.21741	491.97128	14.31445	-1896.27478	508.82193	122.16838	-1824.84973	410.20291	1.22763	-1833.13464	362.77344	-0.30582	-1886.83899	410.49530	3.30073	-1886.54675	363.92059	2.21380	-1884.97900	112.31824	39.50382	-1905.86194	140.12061	114.76378	-1830.76343	80.02796	95.81484	-2040.98706	72.90371	102.23464	-2052.08130	92.59798	49.69463	-1999.79395	60.96046	-5.35545
